# xmcd
#
# Track frame offsets:
#	150
#	15617
#	33748
#	48910
#	65257
#	81739
#	106436
#	125092
#	142695
#	155649
#	172800
#	193686
#
# Disc length: 2840 seconds
#
# Revision: 10
# Processed by: cddbd v1.5.2PL0 Copyright (c) Steve Scherf et al.
# Submitted via: Jack! The Knife 20 Magnifico
#
DISCID=a20b160c
DTITLE=Def Leppard - Euphoria
DYEAR=1999
DGENRE=Hard Rock
TTITLE0=Demolition Man
TTITLE1=Promises
TTITLE2=Back In Your Face
TTITLE3=Goodbye
TTITLE4=All Night
TTITLE5=Paper Sun
TTITLE6=21st Century Sha La La La Girl
TTITLE7=To Be Alive
TTITLE8=Disintegrate
TTITLE9=Guilty
TTITLE10=Day After Day
TTITLE11=Kings Of Oblivion
EXTD=Pete Woodroffe and Def Leppard
EXTT0=Collen, Campbell, Elliott
EXTT1=Collen, Lange
EXTT2=Elliott, Collen
EXTT3=Rick Savage
EXTT4=Collen, Lange
EXTT5=Collen, Campbell, Elliott, Savage, Woodroffe
EXTT6=Elliott, Lange, Savage, Campbell
EXTT7=Collen, Elliott, Savage
EXTT8=Campbell, P.J. Smith
EXTT9=Phil Collen
EXTT10=Collen, Elliott, Campbell
EXTT11=Elliott, Collen, Savage
PLAYORDER=
